<?xml version="1.0" encoding="UTF-8" standalone="no"?>
<svg
   class="img-fluid"
   id="outputsvg"
   width="1512"
   height="768"
   viewBox="0 0 15120 7680"
   version="1.1"
   sodipodi:docname="logo.svg"
   inkscape:version="1.1.2 (b8e25be833, 2022-02-05)"
   xmlns:inkscape="http://www.inkscape.org/namespaces/inkscape"
   xmlns:sodipodi="http://sodipodi.sourceforge.net/DTD/sodipodi-0.dtd"
   xmlns="http://www.w3.org/2000/svg"
   xmlns:svg="http://www.w3.org/2000/svg">
  <defs
     id="defs15" />
  <sodipodi:namedview
     id="namedview13"
     pagecolor="#ffffff"
     bordercolor="#666666"
     borderopacity="1.0"
     inkscape:pageshadow="2"
     inkscape:pageopacity="0.0"
     inkscape:pagecheckerboard="0"
     showgrid="false"
     inkscape:zoom="0.97005208"
     inkscape:cx="755.62953"
     inkscape:cy="383.48456"
     inkscape:window-width="2560"
     inkscape:window-height="1494"
     inkscape:window-x="-11"
     inkscape:window-y="-11"
     inkscape:window-maximized="1"
     inkscape:current-layer="outputsvg" />
  <g
     id="l5t3r3Z8igE4e1lMJ2pEyG4"
     fill="rgb(0,0,0)"
     style="transform: none;">
    <g
       id="g3">
      <path
         id="pq1yOmhpp"
         d="M0 3840 l0 -3840 7560 0 7560 0 0 3840 0 3840 -7560 0 -7560 0 0 -3840z m3650 2115 l0 -295 -195 0 -196 0 3 -652 c4 -725 1 -694 74 -846 39 -81 129 -184 202 -231 85 -54 192 -83 328 -89 210 -8 332 28 437 131 65 63 104 137 139 262 22 79 22 91 26 752 l3 673 -198 2 -198 3 -3 293 -2 292 800 0 800 0 0 -295 0 -295 -200 0 -200 0 0 -749 c0 -477 -4 -777 -11 -826 -41 -300 -161 -499 -391 -650 -311 -205 -728 -242 -1080 -96 -158 66 -322 201 -418 343 -40 60 -49 67 -77 68 l-33 0 0 -1010 0 -1010 -600 0 -600 0 0 295 0 295 200 0 200 0 0 1670 0 1670 -200 0 -200 0 0 295 0 295 795 0 795 0 0 -295z m3848 -1943 c348 -1230 636 -2247 639 -2259 l5 -23 -383 0 -384 0 -638 2253 c-351 1238 -637 2255 -637 2260 0 4 172 7 383 7 l382 0 633 -2238z m2460 2011 c49 -126 208 -531 353 -901 l264 -673 50 3 50 3 389 898 389 897 291 -2 291 -3 400 -1160 c220 -638 403 -1168 407 -1177 7 -16 23 -18 143 -18 l135 0 0 -290 0 -290 -690 0 -690 0 0 290 0 290 195 0 195 0 0 33 c1 17 -54 290 -122 605 l-122 573 -51 -3 -50 -3 -407 -890 -407 -890 -229 -3 -229 -2 -350 902 -351 903 -53 0 -54 0 -182 -580 c-100 -319 -182 -595 -182 -612 l-1 -33 210 0 210 0 0 -290 0 -290 -770 0 -770 0 0 290 0 290 134 0 134 0 10 28 c20 55 795 2248 809 2290 l15 42 273 0 273 0 90 -227z" />
    </g>
  </g>
  <g
     id="l3cBfcoNkzuWcq986O5fOfB"
     fill="rgb(255,255,255)"
     style="transform: none;">
    <g
       id="g9">
      <path
         id="p11FW1A9zI"
         d="M2030 5955 l0 -325 200 0 200 0 0 -1640 0 -1640 -200 0 -200 0 0 -325 0 -325 630 0 630 0 0 1012 0 1011 52 -74 c188 -267 469 -412 828 -426 298 -12 519 43 728 182 230 151 350 350 391 650 7 49 11 349 11 826 l0 749 200 0 200 0 0 325 0 325 -830 0 -830 0 2 -322 3 -323 198 -3 198 -2 -3 -643 c-4 -629 -4 -644 -26 -722 -65 -231 -185 -351 -387 -386 -148 -25 -343 10 -457 82 -73 47 -163 150 -202 231 -72 151 -70 124 -74 816 l-3 622 196 0 195 0 0 325 0 325 -825 0 -825 0 0 -325z" />
      <path
         id="pqlJ0Pcsu"
         d="M6052 6266 c2 -8 293 -1038 648 -2290 l645 -2276 424 0 c334 0 422 3 419 13 -2 6 -294 1037 -649 2289 l-644 2278 -423 0 c-360 0 -423 -2 -420 -14z" />
      <path
         id="pkJUDrfv4"
         d="M9277 6238 c-14 -42 -789 -2235 -809 -2290 l-10 -28 -134 0 -134 0 0 -320 0 -320 800 0 800 0 0 320 0 320 -209 2 -208 3 181 580 c172 550 183 580 205 580 22 0 47 -63 374 -903 l350 -902 259 2 259 3 407 890 c330 722 411 891 427 893 19 3 28 -32 140 -550 65 -304 120 -563 123 -575 l4 -23 -196 0 -196 0 0 -320 0 -320 720 0 720 0 0 320 0 320 -135 0 c-120 0 -136 2 -143 17 -4 10 -187 540 -407 1178 l-400 1160 -321 3 -321 2 -389 -897 c-317 -733 -393 -899 -409 -901 -18 -2 -50 75 -284 670 -145 370 -304 775 -353 901 l-90 227 -303 0 -303 0 -15 -42z" />
    </g>
  </g>
</svg>
